<svg xmlns="http://www.w3.org/2000/svg" xmlns:xlink="http://www.w3.org/1999/xlink" width="500" zoomAndPan="magnify" viewBox="0 0 375 374.999991" height="500" preserveAspectRatio="xMidYMid meet" version="1.0"><defs><g/><clipPath id="7e88dfec10"><path d="M 168 269.675781 L 271 269.675781 L 271 276.425781 L 168 276.425781 Z M 168 269.675781 " clip-rule="nonzero"/></clipPath><clipPath id="1b0228704e"><path d="M 264.601562 220.972656 L 350.101562 220.972656 L 350.101562 280.972656 L 264.601562 280.972656 Z M 264.601562 220.972656 " clip-rule="nonzero"/></clipPath><clipPath id="340a99bd5c"><path d="M 104 269.675781 L 207 269.675781 L 207 276.425781 L 104 276.425781 Z M 104 269.675781 " clip-rule="nonzero"/></clipPath><clipPath id="c6b891e438"><path d="M 49 269.675781 L 152 269.675781 L 152 276.425781 L 49 276.425781 Z M 49 269.675781 " clip-rule="nonzero"/></clipPath></defs><g fill="#000000" fill-opacity="1"><g transform="translate(24.601367, 218.516731)"><g><path d="M 67.125 -93.328125 C 81.132812 -93.328125 91.6875 -90.640625 98.78125 -85.265625 C 105.882812 -79.890625 109.4375 -72.019531 109.4375 -61.65625 C 109.4375 -56.519531 108.503906 -50.585938 106.640625 -43.859375 C 103.554688 -33.023438 99.394531 -24.429688 94.15625 -18.078125 C 88.925781 -11.722656 82.035156 -7.097656 73.484375 -4.203125 C 64.941406 -1.304688 53.992188 0.09375 40.640625 0 L 2.515625 -0.140625 C 0.554688 -0.140625 -0.957031 -0.46875 -2.03125 -1.125 C -3.101562 -1.78125 -3.640625 -2.664062 -3.640625 -3.78125 C -3.640625 -4.34375 -3.5 -4.953125 -3.21875 -5.609375 C -2.9375 -6.441406 -2.539062 -7.046875 -2.03125 -7.421875 C -1.519531 -7.796875 -0.75 -8.3125 0.28125 -8.96875 C 1.769531 -9.8125 2.957031 -10.742188 3.84375 -11.765625 C 4.738281 -12.796875 5.515625 -14.429688 6.171875 -16.671875 L 23.265625 -76.921875 C 23.640625 -78.140625 23.828125 -79.3125 23.828125 -80.4375 C 23.828125 -81.457031 23.660156 -82.316406 23.328125 -83.015625 C 23.003906 -83.722656 22.5625 -84.539062 22 -85.46875 C 21.15625 -86.6875 20.734375 -87.671875 20.734375 -88.421875 C 20.734375 -88.703125 20.828125 -89.210938 21.015625 -89.953125 C 21.390625 -91.171875 22.207031 -92.035156 23.46875 -92.546875 C 24.726562 -93.066406 26.664062 -93.328125 29.28125 -93.328125 Z M 70.765625 -46.9375 C 73.191406 -55.71875 74.40625 -62.632812 74.40625 -67.6875 C 74.40625 -72.632812 73.375 -76.039062 71.3125 -77.90625 C 69.257812 -79.78125 66.320312 -80.71875 62.5 -80.71875 L 59.40625 -80.71875 L 40.5 -12.609375 L 43.859375 -12.609375 C 48.160156 -12.609375 51.78125 -13.519531 54.71875 -15.34375 C 57.65625 -17.164062 60.382812 -20.53125 62.90625 -25.4375 C 65.4375 -30.34375 68.054688 -37.507812 70.765625 -46.9375 Z M 70.765625 -46.9375 "/></g></g></g><g fill="#000000" fill-opacity="1"><g transform="translate(132.821144, 218.516731)"><g><path d="M 91.359375 -93.328125 C 94.816406 -93.328125 97.503906 -92.578125 99.421875 -91.078125 C 101.335938 -89.585938 102.296875 -87.535156 102.296875 -84.921875 C 102.296875 -83.609375 102.109375 -82.34375 101.734375 -81.125 L 98.09375 -68.09375 C 97.4375 -65.664062 96.359375 -63.9375 94.859375 -62.90625 C 93.367188 -61.882812 91.410156 -61.375 88.984375 -61.375 C 86.640625 -61.375 84.765625 -61.863281 83.359375 -62.84375 C 81.960938 -63.820312 80.941406 -65.4375 80.296875 -67.6875 L 78.046875 -75.671875 C 77.671875 -77.066406 77.203125 -78 76.640625 -78.46875 C 76.085938 -78.9375 74.921875 -79.171875 73.140625 -79.171875 L 59.125 -79.171875 L 51.28125 -51.421875 L 53.953125 -51.421875 C 55.253906 -51.421875 56.394531 -51.609375 57.375 -51.984375 C 58.363281 -52.359375 59.414062 -53.0625 60.53125 -54.09375 L 64.875 -57.734375 C 66.46875 -59.128906 67.894531 -60.128906 69.15625 -60.734375 C 70.414062 -61.347656 71.742188 -61.65625 73.140625 -61.65625 C 74.921875 -61.65625 76.394531 -61.140625 77.5625 -60.109375 C 78.726562 -59.085938 79.3125 -57.640625 79.3125 -55.765625 C 79.3125 -55.023438 79.171875 -54.140625 78.890625 -53.109375 L 72.71875 -31.8125 C 71.320312 -27.226562 68.800781 -24.9375 65.15625 -24.9375 C 62.164062 -24.9375 59.832031 -26.476562 58.15625 -29.5625 L 55.625 -34.328125 C 54.976562 -35.640625 54.375 -36.476562 53.8125 -36.84375 C 53.25 -37.21875 52.40625 -37.40625 51.28125 -37.40625 L 47.21875 -37.40625 L 41.34375 -16.53125 C 41.15625 -15.96875 41.0625 -15.222656 41.0625 -14.296875 C 41.0625 -12.984375 41.363281 -11.90625 41.96875 -11.0625 C 42.570312 -10.226562 43.484375 -9.34375 44.703125 -8.40625 C 45.722656 -7.5625 46.421875 -6.882812 46.796875 -6.375 C 47.171875 -5.863281 47.359375 -5.234375 47.359375 -4.484375 C 47.359375 -2.804688 46.609375 -1.640625 45.109375 -0.984375 C 43.617188 -0.328125 41.425781 0 38.53125 0 L 3.359375 0 C 0.929688 0 -0.882812 -0.441406 -2.09375 -1.328125 C -3.3125 -2.210938 -3.734375 -3.453125 -3.359375 -5.046875 C -3.171875 -5.890625 -2.820312 -6.566406 -2.3125 -7.078125 C -1.800781 -7.585938 -1.03125 -8.171875 0 -8.828125 C 1.582031 -9.765625 2.84375 -10.742188 3.78125 -11.765625 C 4.71875 -12.796875 5.46875 -14.382812 6.03125 -16.53125 L 23.265625 -76.921875 C 23.640625 -78.140625 23.828125 -79.265625 23.828125 -80.296875 C 23.828125 -81.410156 23.660156 -82.34375 23.328125 -83.09375 C 23.003906 -83.84375 22.515625 -84.632812 21.859375 -85.46875 C 21.015625 -86.6875 20.59375 -87.671875 20.59375 -88.421875 C 20.59375 -88.703125 20.6875 -89.210938 20.875 -89.953125 C 21.25 -91.171875 22.085938 -92.035156 23.390625 -92.546875 C 24.703125 -93.066406 26.617188 -93.328125 29.140625 -93.328125 Z M 91.359375 -93.328125 "/></g></g></g><g fill="#000000" fill-opacity="1"><g transform="translate(48.775536, 260.403586)"><g><path d="M 25.566406 -1.117188 L 16.738281 -25.046875 C 16.378906 -25.882812 15.976562 -26.285156 15.097656 -26.285156 L 11.265625 -26.285156 C 10.386719 -26.285156 9.945312 -25.882812 9.625 -25.046875 L 0.757812 -1.117188 C 0.558594 -0.640625 0.558594 0 1.4375 0 L 5.632812 0 C 6.511719 0 6.832031 -0.238281 7.148438 -1.199219 L 8.269531 -4.355469 L 18.054688 -4.355469 L 19.171875 -1.199219 C 19.492188 -0.238281 19.8125 0 20.691406 0 L 24.886719 0 C 25.765625 0 25.765625 -0.640625 25.566406 -1.117188 Z M 13.183594 -18.773438 L 16.175781 -9.945312 L 10.1875 -9.945312 Z M 13.183594 -18.773438 "/></g></g></g><g fill="#000000" fill-opacity="1"><g transform="translate(74.921406, 260.403586)"><g><path d="M 23.128906 -26.285156 L 19.292969 -26.285156 C 18.574219 -26.285156 18.136719 -26.042969 18.136719 -25.125 L 18.136719 -11.265625 L 9.667969 -24.925781 C 9.148438 -25.722656 8.867188 -26.285156 7.867188 -26.285156 L 4.113281 -26.285156 C 3.195312 -26.285156 2.957031 -25.84375 2.957031 -25.125 L 2.957031 -1.160156 C 2.957031 -0.238281 3.394531 0 4.113281 0 L 8.070312 0 C 8.789062 0 9.226562 -0.238281 9.226562 -1.160156 L 9.226562 -15.058594 L 17.695312 -1.359375 C 18.214844 -0.558594 18.496094 0 19.492188 0 L 23.128906 0 C 24.046875 0 24.285156 -0.4375 24.285156 -1.160156 L 24.285156 -25.125 C 24.285156 -26.042969 23.847656 -26.285156 23.128906 -26.285156 Z M 23.128906 -26.285156 "/></g></g></g><g fill="#000000" fill-opacity="1"><g transform="translate(102.145053, 260.403586)"><g><path d="M 25.566406 -1.117188 L 16.738281 -25.046875 C 16.378906 -25.882812 15.976562 -26.285156 15.097656 -26.285156 L 11.265625 -26.285156 C 10.386719 -26.285156 9.945312 -25.882812 9.625 -25.046875 L 0.757812 -1.117188 C 0.558594 -0.640625 0.558594 0 1.4375 0 L 5.632812 0 C 6.511719 0 6.832031 -0.238281 7.148438 -1.199219 L 8.269531 -4.355469 L 18.054688 -4.355469 L 19.171875 -1.199219 C 19.492188 -0.238281 19.8125 0 20.691406 0 L 24.886719 0 C 25.765625 0 25.765625 -0.640625 25.566406 -1.117188 Z M 13.183594 -18.773438 L 16.175781 -9.945312 L 10.1875 -9.945312 Z M 13.183594 -18.773438 "/></g></g></g><g fill="#000000" fill-opacity="1"><g transform="translate(128.290922, 260.403586)"><g><path d="M 20.730469 -5.59375 L 9.226562 -5.59375 L 9.226562 -25.125 C 9.226562 -26.042969 8.789062 -26.285156 8.070312 -26.285156 L 4.113281 -26.285156 C 3.394531 -26.285156 2.957031 -26.042969 2.957031 -25.125 L 2.957031 -1.160156 C 2.957031 -0.4375 3.195312 0 4.113281 0 L 20.730469 0 C 21.648438 0 21.890625 -0.4375 21.890625 -1.160156 L 21.890625 -4.433594 C 21.890625 -5.152344 21.648438 -5.59375 20.730469 -5.59375 Z M 20.730469 -5.59375 "/></g></g></g><g fill="#000000" fill-opacity="1"><g transform="translate(151.522841, 260.403586)"><g><path d="M 22.96875 -26.285156 L 18.652344 -26.285156 C 17.734375 -26.285156 17.335938 -26.164062 16.816406 -25.085938 L 12.304688 -16.496094 L 7.628906 -25.085938 C 7.070312 -26.164062 6.671875 -26.285156 5.753906 -26.285156 L 1.160156 -26.285156 C 0.398438 -26.285156 0.320312 -25.605469 0.519531 -25.164062 L 9.066406 -9.867188 L 9.066406 -1.160156 C 9.066406 -0.238281 9.46875 0 10.226562 0 L 14.21875 0 C 14.9375 0 15.378906 -0.238281 15.378906 -1.160156 L 15.378906 -9.867188 L 23.605469 -25.164062 C 23.808594 -25.605469 23.726562 -26.285156 22.96875 -26.285156 Z M 22.96875 -26.285156 "/></g></g></g><g fill="#000000" fill-opacity="1"><g transform="translate(175.632943, 260.403586)"><g><path d="M 20.730469 -26.285156 L 2.195312 -26.285156 C 1.277344 -26.285156 1.039062 -25.84375 1.039062 -25.125 L 1.039062 -21.808594 C 1.039062 -21.089844 1.277344 -20.652344 2.195312 -20.652344 L 8.347656 -20.652344 L 8.347656 -1.160156 C 8.347656 -0.238281 8.789062 0 9.507812 0 L 13.460938 0 C 14.179688 0 14.621094 -0.238281 14.621094 -1.160156 L 14.621094 -20.652344 L 20.730469 -20.652344 C 21.648438 -20.652344 21.890625 -21.089844 21.890625 -21.808594 L 21.890625 -25.125 C 21.890625 -25.84375 21.648438 -26.285156 20.730469 -26.285156 Z M 20.730469 -26.285156 "/></g></g></g><g fill="#000000" fill-opacity="1"><g transform="translate(198.545512, 260.403586)"><g><path d="M 14.378906 -5.472656 L 11.863281 -5.472656 L 11.863281 -20.730469 L 14.261719 -20.730469 C 15.179688 -20.730469 15.417969 -21.171875 15.417969 -21.890625 L 15.417969 -25.125 C 15.417969 -25.84375 15.179688 -26.285156 14.261719 -26.285156 L 3.15625 -26.285156 C 2.238281 -26.285156 1.996094 -25.84375 1.996094 -25.125 L 1.996094 -21.890625 C 1.996094 -21.171875 2.238281 -20.730469 3.15625 -20.730469 L 5.59375 -20.730469 L 5.59375 -5.472656 L 3.074219 -5.472656 C 2.15625 -5.472656 1.917969 -5.03125 1.917969 -4.3125 L 1.917969 -1.160156 C 1.917969 -0.4375 2.15625 0 3.074219 0 L 14.378906 0 C 15.300781 0 15.539062 -0.4375 15.539062 -1.160156 L 15.539062 -4.3125 C 15.539062 -5.03125 15.300781 -5.472656 14.378906 -5.472656 Z M 14.378906 -5.472656 "/></g></g></g><g fill="#000000" fill-opacity="1"><g transform="translate(216.268819, 260.403586)"><g><path d="M 23.207031 -7.789062 C 23.207031 -8.746094 22.886719 -9.148438 22.007812 -9.148438 L 18.09375 -9.148438 C 17.214844 -9.148438 17.136719 -8.507812 17.015625 -7.710938 C 16.695312 -5.792969 14.980469 -4.992188 12.824219 -4.992188 C 10.1875 -4.992188 8.386719 -6.429688 8.386719 -8.988281 L 8.386719 -17.296875 C 8.386719 -19.8125 10.1875 -21.289062 12.824219 -21.289062 C 14.980469 -21.289062 16.097656 -20.691406 16.9375 -19.375 C 17.257812 -18.894531 17.296875 -18.136719 18.136719 -18.136719 L 21.96875 -18.136719 C 22.886719 -18.136719 23.207031 -18.335938 23.207031 -19.292969 C 22.6875 -24.367188 17.777344 -26.882812 12.824219 -26.882812 C 8.070312 -26.882812 2.117188 -24.125 2.117188 -17.855469 L 2.117188 -8.429688 C 2.117188 -2.15625 8.070312 0.597656 12.824219 0.597656 C 17.777344 0.597656 23.207031 -2.636719 23.207031 -7.789062 Z M 23.207031 -7.789062 "/></g></g></g><g fill="#000000" fill-opacity="1"><g transform="translate(241.496587, 260.403586)"><g><path d="M 15.339844 -15.257812 C 13.742188 -15.898438 7.867188 -16.777344 7.867188 -19.214844 C 7.867188 -21.011719 10.066406 -21.53125 11.382812 -21.53125 C 12.582031 -21.53125 14.019531 -21.171875 14.78125 -20.453125 C 15.257812 -19.972656 15.457031 -19.652344 15.617188 -19.253906 C 15.816406 -18.734375 15.9375 -18.175781 16.695312 -18.175781 L 20.613281 -18.175781 C 21.53125 -18.175781 21.769531 -18.335938 21.769531 -19.292969 C 21.769531 -24.566406 16.21875 -26.882812 11.144531 -26.882812 C 6.152344 -26.683594 1.4375 -24.125 1.4375 -18.933594 C 1.4375 -13.859375 5.152344 -12.261719 9.1875 -10.984375 C 12.582031 -9.90625 16.136719 -9.867188 16.136719 -7.628906 C 16.136719 -5.390625 14.378906 -4.914062 12.222656 -4.914062 C 10.746094 -4.914062 9.105469 -5.273438 8.308594 -6.230469 C 7.789062 -6.832031 7.589844 -7.351562 7.550781 -7.867188 C 7.46875 -8.867188 7.03125 -8.988281 6.113281 -8.988281 L 2.238281 -8.988281 C 1.316406 -8.988281 1.078125 -8.789062 1.078125 -7.867188 C 1.078125 -2.277344 6.832031 0.597656 11.824219 0.597656 C 17.976562 0.597656 22.449219 -2.117188 22.449219 -7.789062 C 22.449219 -13.222656 18.214844 -14.378906 15.339844 -15.257812 Z M 15.339844 -15.257812 "/></g></g></g><g fill="#000000" fill-opacity="1"><g transform="translate(221.246738, 218.516731)"><g><path d="M 52.40625 -94.15625 C 57.632812 -94.15625 62.46875 -93.523438 66.90625 -92.265625 C 71.34375 -91.003906 75.851562 -89.019531 80.4375 -86.3125 L 83.65625 -88.984375 C 85.894531 -90.753906 87.738281 -91.96875 89.1875 -92.625 C 90.632812 -93.28125 92.289062 -93.609375 94.15625 -93.609375 C 96.40625 -93.609375 98.179688 -93.113281 99.484375 -92.125 C 100.796875 -91.144531 101.453125 -89.722656 101.453125 -87.859375 C 101.453125 -87.109375 101.3125 -86.3125 101.03125 -85.46875 L 95.140625 -66.140625 C 94.484375 -63.898438 93.664062 -62.3125 92.6875 -61.375 C 91.707031 -60.4375 90.238281 -59.96875 88.28125 -59.96875 C 86.226562 -59.96875 84.429688 -60.597656 82.890625 -61.859375 C 81.347656 -63.117188 78.941406 -65.710938 75.671875 -69.640625 C 72.398438 -73.378906 69.429688 -76.019531 66.765625 -77.5625 C 64.109375 -79.101562 61.378906 -79.875 58.578125 -79.875 C 56.515625 -79.875 54.78125 -79.195312 53.375 -77.84375 C 51.976562 -76.488281 51.28125 -74.828125 51.28125 -72.859375 C 51.28125 -70.617188 52.398438 -68.539062 54.640625 -66.625 C 56.890625 -64.707031 60.394531 -62.300781 65.15625 -59.40625 C 70.007812 -56.507812 74.023438 -53.894531 77.203125 -51.5625 C 80.378906 -49.226562 83.085938 -46.332031 85.328125 -42.875 C 87.578125 -39.414062 88.703125 -35.445312 88.703125 -30.96875 C 88.703125 -28.070312 88.234375 -25.175781 87.296875 -22.28125 C 85.054688 -14.800781 80.710938 -9.125 74.265625 -5.25 C 67.816406 -1.375 60.296875 0.5625 51.703125 0.5625 C 45.253906 0.5625 39.832031 -0.179688 35.4375 -1.671875 C 31.050781 -3.171875 26.570312 -5.695312 22 -9.25 L 16.953125 -5.046875 C 14.617188 -3.085938 12.703125 -1.753906 11.203125 -1.046875 C 9.710938 -0.347656 8.035156 0 6.171875 0 C 4.015625 0 2.304688 -0.507812 1.046875 -1.53125 C -0.210938 -2.5625 -0.84375 -3.96875 -0.84375 -5.75 C -0.84375 -6.675781 -0.65625 -7.65625 -0.28125 -8.6875 L 6.578125 -29.5625 C 7.328125 -31.988281 8.351562 -33.71875 9.65625 -34.75 C 10.96875 -35.78125 12.65625 -36.296875 14.71875 -36.296875 C 16.863281 -36.296875 18.800781 -35.546875 20.53125 -34.046875 C 22.257812 -32.554688 24.523438 -29.847656 27.328125 -25.921875 C 30.316406 -21.628906 33.09375 -18.640625 35.65625 -16.953125 C 38.226562 -15.273438 41.289062 -14.4375 44.84375 -14.4375 C 47.363281 -14.4375 49.300781 -14.832031 50.65625 -15.625 C 52.007812 -16.414062 52.96875 -17.703125 53.53125 -19.484375 C 53.71875 -19.941406 53.8125 -20.640625 53.8125 -21.578125 C 53.8125 -23.816406 52.734375 -25.867188 50.578125 -27.734375 C 48.429688 -29.609375 45.117188 -31.851562 40.640625 -34.46875 C 35.867188 -37.363281 31.988281 -39.957031 29 -42.25 C 26.007812 -44.539062 23.414062 -47.410156 21.21875 -50.859375 C 19.03125 -54.316406 17.9375 -58.382812 17.9375 -63.0625 C 17.9375 -66.320312 18.453125 -69.539062 19.484375 -72.71875 C 21.441406 -79.164062 25.457031 -84.347656 31.53125 -88.265625 C 37.601562 -92.191406 44.5625 -94.15625 52.40625 -94.15625 Z M 52.40625 -94.15625 "/></g></g></g><g clip-path="url(#7e88dfec10)"><path fill="#e80000" d="M 267.292969 269.675781 L 172.136719 269.675781 C 170.257812 269.675781 168.738281 271.199219 168.738281 273.074219 C 168.738281 274.953125 170.257812 276.472656 172.136719 276.472656 L 267.292969 276.472656 C 269.167969 276.472656 270.691406 274.953125 270.691406 273.074219 C 270.691406 271.199219 269.167969 269.675781 267.292969 269.675781 Z M 267.292969 269.675781 " fill-opacity="1" fill-rule="nonzero"/></g><g clip-path="url(#1b0228704e)"><path fill="#00bf63" d="M 256.671875 200.199219 C 254.714844 200.199219 253.132812 201.78125 253.132812 203.738281 L 253.132812 297.714844 C 253.132812 299.671875 254.714844 301.253906 256.671875 301.253906 L 360.058594 301.253906 C 362.015625 301.253906 363.597656 299.671875 363.597656 297.714844 C 363.597656 295.796875 362.015625 294.214844 360.058594 294.214844 L 260.167969 294.214844 L 260.167969 203.738281 C 260.167969 201.78125 258.585938 200.199219 256.671875 200.199219 Z M 327.164062 222.515625 C 325.039062 222.515625 323.375 224.515625 323.457031 226.222656 C 323.542969 228.09375 325.332031 229.675781 327.164062 229.550781 L 337.117188 229.550781 L 305.84375 258.949219 L 294.644531 249.582031 C 293.9375 248.746094 292.8125 248.246094 291.6875 248.332031 C 290.898438 248.371094 290.148438 248.707031 289.566406 249.246094 L 266.039062 270.398438 C 264.625 271.605469 264.414062 274.0625 265.707031 275.480469 C 266.957031 276.894531 269.414062 276.976562 270.746094 275.644531 L 292.023438 256.535156 L 303.347656 265.945312 C 304.554688 267.402344 307.054688 267.527344 308.425781 266.234375 L 342.445312 234.257812 L 342.445312 244.832031 C 342.402344 246.707031 344.109375 248.414062 345.984375 248.414062 C 347.816406 248.414062 349.523438 246.707031 349.480469 244.832031 L 349.480469 226.054688 C 349.480469 224.179688 347.816406 222.515625 345.984375 222.515625 Z M 327.164062 222.515625 " fill-opacity="1" fill-rule="nonzero"/></g><g clip-path="url(#340a99bd5c)"><path fill="#e80000" d="M 203.449219 269.675781 L 108.292969 269.675781 C 106.417969 269.675781 104.894531 271.199219 104.894531 273.074219 C 104.894531 274.953125 106.417969 276.472656 108.292969 276.472656 L 203.449219 276.472656 C 205.328125 276.472656 206.847656 274.953125 206.847656 273.074219 C 206.847656 271.199219 205.328125 269.675781 203.449219 269.675781 Z M 203.449219 269.675781 " fill-opacity="1" fill-rule="nonzero"/></g><g clip-path="url(#c6b891e438)"><path fill="#e80000" d="M 148.265625 269.675781 L 53.109375 269.675781 C 51.230469 269.675781 49.710938 271.199219 49.710938 273.074219 C 49.710938 274.953125 51.230469 276.472656 53.109375 276.472656 L 148.265625 276.472656 C 150.140625 276.472656 151.664062 274.953125 151.664062 273.074219 C 151.664062 271.199219 150.140625 269.675781 148.265625 269.675781 Z M 148.265625 269.675781 " fill-opacity="1" fill-rule="nonzero"/></g></svg>