<svg width="142" height="211" xmlns="http://www.w3.org/2000/svg" xmlns:xlink="http://www.w3.org/1999/xlink" xml:space="preserve" overflow="hidden"><g transform="translate(-2342 -316)"><g><path d="M2409.25 354 2417.75 354C2420.1 354 2422 352.211 2422 350 2422 347.789 2420.1 346 2417.75 346L2409.25 346C2406.9 346 2405 347.789 2405 350 2405 352.211 2406.9 354 2409.25 354Z" fill="#000000" fill-rule="evenodd" fill-opacity="1"/><path d="M2464.75 320 2361.25 320C2351.74 320 2344 327.699 2344 337.167L2344 508.834C2344 518.301 2351.74 526 2361.25 526L2464.75 526C2474.26 526 2482 518.301 2482 508.833L2482 337.167C2482 327.699 2474.26 320 2464.75 320ZM2425.94 508.833 2400.06 508.833C2397.68 508.833 2395.75 506.913 2395.75 504.541 2395.75 502.169 2397.68 500.25 2400.06 500.25L2425.94 500.25C2428.32 500.25 2430.25 502.169 2430.25 504.542 2430.25 506.914 2428.32 508.833 2425.94 508.833ZM2464.75 483.083 2361.25 483.083 2361.25 337.167 2464.75 337.167 2464.75 483.083Z" fill="#000000" fill-rule="evenodd" fill-opacity="1"/><path d="M2456 350C2456 352.209 2453.99 354 2451.5 354 2449.02 354 2447 352.209 2447 350 2447 347.791 2449.02 346 2451.5 346 2453.99 346 2456 347.791 2456 350Z" fill="#000000" fill-rule="evenodd" fill-opacity="1"/><path d="M2369.24 427.324 2377.42 429.395 2373.08 436.707C2372.08 438.406 2372.34 440.582 2373.73 441.982L2385.81 454.194C2387.21 455.599 2389.36 455.856 2391.04 454.844L2398.26 450.458 2400.31 458.732C2400.78 460.651 2402.49 462 2404.45 462L2421.55 462C2423.51 462 2425.22 460.651 2425.69 458.732L2427.74 450.458 2434.96 454.844C2436.63 455.856 2438.8 455.599 2440.19 454.194L2452.27 441.982C2453.66 440.582 2453.92 438.406 2452.91 436.707L2448.58 429.395 2456.76 427.324C2458.66 426.843 2460 425.118 2460 423.137L2460 405.864C2460 403.882 2458.66 402.157 2456.76 401.676L2448.58 399.606 2452.91 392.293C2453.92 390.594 2453.66 388.418 2452.27 387.018L2440.19 374.806C2438.8 373.393 2436.63 373.14 2434.96 374.156L2427.74 378.542 2425.69 370.268C2425.22 368.349 2423.51 367 2421.55 367L2404.45 367C2402.49 367 2400.78 368.349 2400.31 370.268L2398.26 378.542 2391.04 374.156C2389.36 373.141 2387.21 373.402 2385.81 374.806L2373.73 387.018C2372.34 388.418 2372.08 390.594 2373.08 392.293L2377.42 399.606 2369.24 401.676C2367.34 402.157 2366 403.882 2366 405.864L2366 423.137C2366 425.118 2367.34 426.843 2369.24 427.324ZM2413 392.91C2424.78 392.91 2434.36 402.596 2434.36 414.5 2434.36 426.404 2424.78 436.091 2413 436.091 2401.22 436.091 2391.64 426.405 2391.64 414.5 2391.64 402.596 2401.22 392.91 2413 392.91Z" fill="#000000" fill-rule="evenodd" fill-opacity="1"/></g></g></svg>