<svg width="210" height="175" xmlns="http://www.w3.org/2000/svg" xmlns:xlink="http://www.w3.org/1999/xlink" xml:space="preserve" overflow="hidden"><defs><clipPath id="clip0"><rect x="2310" y="870" width="210" height="175"/></clipPath><clipPath id="clip1"><rect x="2310" y="870" width="210" height="175"/></clipPath></defs><g clip-path="url(#clip0)" transform="translate(-2310 -870)"><g clip-path="url(#clip1)"><path d="M2516.75 910.969 2508.25 908.841C2508.09 908.412 2507.91 907.992 2507.74 907.572L2512.24 900.056C2513.25 898.363 2512.99 896.197 2511.59 894.802L2498.24 881.424C2496.85 880.017 2494.69 879.761 2493 880.777L2485.5 885.287C2485.08 885.107 2484.65 884.934 2484.23 884.771L2482.11 876.259C2481.63 874.344 2479.91 873 2477.94 873L2459.06 873C2457.09 873 2455.37 874.344 2454.9 876.259L2452.77 884.771C2452.35 884.934 2451.93 885.107 2451.51 885.287L2444 880.777C2442.31 879.769 2440.15 880.025 2438.76 881.424L2425.41 894.802C2424.02 896.197 2423.75 898.363 2424.76 900.056L2429.26 907.572C2429.09 907.992 2428.91 908.412 2428.75 908.841L2420.25 910.969C2418.34 911.448 2417 913.165 2417 915.139L2417 934.061C2417 936.035 2418.34 937.753 2420.25 938.231L2428.75 940.36C2428.91 940.789 2429.08 941.208 2429.26 941.628L2424.76 949.145C2424.55 949.493 2424.63 949.894 2424.52 950.271 2424.49 950.234 2424.5 950.177 2424.46 950.141L2408.68 934.326C2407.28 932.928 2405.11 932.663 2403.43 933.68L2396.04 938.131C2394.55 937.425 2393.03 936.795 2391.5 936.241L2389.4 927.855C2388.92 925.944 2387.21 924.601 2385.24 924.601L2362.93 924.601C2360.96 924.601 2359.24 925.944 2358.77 927.855L2356.67 936.241C2355.14 936.795 2353.62 937.425 2352.13 938.131L2344.73 933.68C2343.06 932.668 2340.88 932.928 2339.49 934.326L2323.71 950.141C2322.32 951.535 2322.05 953.701 2323.06 955.394L2327.51 962.805C2326.8 964.296 2326.17 965.816 2325.62 967.353L2317.25 969.452C2315.34 969.931 2314 971.648 2314 973.622L2314 995.979C2314 997.953 2315.34 999.67 2317.25 1000.15L2325.62 1002.25C2326.17 1003.79 2326.8 1005.31 2327.5 1006.8L2323.06 1014.21C2322.05 1015.9 2322.32 1018.07 2323.71 1019.46L2339.49 1035.27C2340.88 1036.66 2343.05 1036.93 2344.73 1035.92L2352.13 1031.47C2353.62 1032.18 2355.14 1032.81 2356.67 1033.36L2358.76 1041.75C2359.24 1043.66 2360.96 1045 2362.93 1045L2385.24 1045C2387.21 1045 2388.92 1043.66 2389.4 1041.75L2391.5 1033.36C2393.03 1032.81 2394.55 1032.18 2396.04 1031.47L2403.43 1035.92C2405.12 1036.93 2407.29 1036.66 2408.68 1035.27L2424.46 1019.46C2425.85 1018.07 2426.12 1015.9 2425.11 1014.21L2420.66 1006.8C2421.37 1005.31 2422 1003.78 2422.55 1002.25L2430.92 1000.15C2432.83 999.67 2434.17 997.953 2434.17 995.979L2434.17 973.622C2434.17 971.648 2432.83 969.931 2430.92 969.452L2422.55 967.353C2422 965.815 2421.37 964.296 2420.66 962.805L2425.11 955.394C2425.31 955.046 2425.24 954.644 2425.34 954.268 2425.38 954.305 2425.37 954.362 2425.41 954.398L2438.76 967.777C2440.15 969.176 2442.31 969.428 2444 968.424L2451.5 963.914C2451.92 964.094 2452.34 964.266 2452.77 964.43L2454.9 972.942C2455.37 974.857 2457.09 976.201 2459.06 976.201L2477.94 976.201C2479.91 976.201 2481.63 974.857 2482.1 972.942L2484.23 964.43C2484.66 964.266 2485.08 964.094 2485.5 963.914L2493 968.424C2494.69 969.432 2496.85 969.167 2498.24 967.777L2511.59 954.398C2512.98 953.004 2513.25 950.837 2512.24 949.145L2507.74 941.628C2507.92 941.208 2508.09 940.789 2508.25 940.36L2516.75 938.231C2518.66 937.753 2520 936.035 2520 934.061L2520 915.139C2520 913.165 2518.66 911.448 2516.75 910.969ZM2374.08 1010.6C2359.88 1010.6 2348.33 999.028 2348.33 984.801 2348.33 970.573 2359.88 959 2374.08 959 2388.28 959 2399.83 970.573 2399.83 984.801 2399.83 999.028 2388.28 1010.6 2374.08 1010.6ZM2468.5 941.8C2459.03 941.8 2451.33 934.086 2451.33 924.6 2451.33 915.114 2459.03 907.4 2468.5 907.4 2477.97 907.4 2485.67 915.114 2485.67 924.6 2485.67 934.087 2477.97 941.8 2468.5 941.8Z" fill="#000000" fill-rule="evenodd" fill-opacity="1"/></g></g></svg>