<svg width="216" height="216" xmlns="http://www.w3.org/2000/svg" xmlns:xlink="http://www.w3.org/1999/xlink" xml:space="preserve" overflow="hidden"><g transform="translate(-806 -320)"><g><path d="M1013.34 324.331 816.028 324.331C813.432 324.331 811.33 326.432 811.33 329.029L811.33 455.871C811.33 466.235 819.758 474.663 830.122 474.663L884.678 474.663 867.948 524.853C867.127 527.316 868.457 529.977 870.916 530.794 871.412 530.959 871.912 531.037 872.403 531.037 874.371 531.037 876.201 529.794 876.858 527.826L894.578 474.663 909.986 474.663 909.986 526.339C909.986 528.936 912.087 531.037 914.684 531.037 917.28 531.037 919.382 528.936 919.382 526.339L919.382 474.662 934.789 474.662 952.51 527.825C953.166 529.793 954.996 531.037 956.965 531.037 957.456 531.037 957.956 530.959 958.451 530.793 960.91 529.977 962.241 527.316 961.42 524.852L944.69 474.662 999.246 474.662C1009.61 474.662 1018.04 466.235 1018.04 455.87L1018.04 329.028C1018.04 326.432 1015.94 324.331 1013.34 324.331ZM999.245 455.871 830.122 455.871 830.122 343.122 999.245 343.122 999.245 455.871Z" fill="#000000" fill-rule="evenodd" fill-opacity="1"/><path d="M853.912 446.741 881.447 446.741C883.984 446.741 886.036 444.62 886.036 442L886.036 404.074C886.036 401.454 883.984 399.333 881.447 399.333L853.912 399.333C851.375 399.333 849.323 401.454 849.323 404.074L849.323 442C849.323 444.62 851.375 446.741 853.912 446.741Z" fill="#000000" fill-rule="evenodd" fill-opacity="1"/><path d="M900.912 446.742 928.447 446.742C930.984 446.742 933.036 444.634 933.036 442.029L933.036 376.045C933.036 373.44 930.984 371.331 928.447 371.331L900.912 371.331C898.376 371.331 896.323 373.44 896.323 376.045L896.323 442.029C896.323 444.634 898.376 446.742 900.912 446.742Z" fill="#000000" fill-rule="evenodd" fill-opacity="1"/><path d="M947.045 447.037 975.324 447.037C977.929 447.037 980.037 444.941 980.037 442.351L980.037 358.015C980.037 355.425 977.929 353.33 975.324 353.33L947.045 353.33C944.44 353.33 942.331 355.425 942.331 358.015L942.331 442.352C942.332 444.941 944.44 447.037 947.045 447.037Z" fill="#000000" fill-rule="evenodd" fill-opacity="1"/></g></g></svg>