<svg width="211" height="192" xmlns="http://www.w3.org/2000/svg" xmlns:xlink="http://www.w3.org/1999/xlink" xml:space="preserve" overflow="hidden"><g transform="translate(-788 -1370)"><g><path d="M994.687 1544.82 990.374 1544.82 990.374 1377.3C990.374 1374.92 988.445 1373 986.062 1373L942.937 1373C940.553 1373 938.624 1374.92 938.624 1377.3L938.624 1544.82 921.375 1544.82 921.375 1420.25C921.375 1417.88 919.446 1415.95 917.062 1415.95L873.937 1415.95C871.554 1415.95 869.625 1417.88 869.625 1420.25L869.625 1544.82 852.375 1544.82 852.375 1463.2C852.375 1460.83 850.446 1458.91 848.062 1458.91L804.938 1458.91C802.554 1458.91 800.625 1460.83 800.625 1463.2L800.625 1544.82 796.313 1544.82C793.929 1544.82 792 1546.74 792 1549.11L792 1557.7C792 1560.08 793.929 1562 796.313 1562L994.687 1562C997.071 1562 999 1560.08 999 1557.7L999 1549.11C999 1546.74 997.071 1544.82 994.687 1544.82Z" fill="#000000" fill-rule="evenodd" fill-opacity="1"/></g></g></svg>