<svg width="220" height="147" xmlns="http://www.w3.org/2000/svg" xmlns:xlink="http://www.w3.org/1999/xlink" xml:space="preserve" overflow="hidden"><g transform="translate(-2310 -1388)"><g><path d="M2527.98 1400.11C2526.78 1399.27 2525.25 1399.06 2523.87 1399.57L2487.26 1412.89C2482.72 1414.54 2479.1 1417.86 2477.08 1422.25 2476.7 1423.07 2476.45 1423.92 2476.2 1424.78 2469.92 1422.99 2458.23 1419.26 2446.62 1413.27 2431.64 1405.55 2418.96 1406.54 2404.43 1417.46 2398.59 1417.56 2390.43 1418.26 2382.42 1418.97 2377.39 1419.41 2372.63 1419.82 2368.77 1420.05 2368.68 1417.74 2368.13 1415.44 2367.13 1413.26 2365.11 1408.88 2361.5 1405.55 2356.96 1403.9L2320.34 1390.59C2318.97 1390.08 2317.43 1390.29 2316.23 1391.13 2315.03 1391.97 2314.32 1393.34 2314.32 1394.81L2314.32 1484.63C2314.32 1487.11 2316.32 1489.12 2318.81 1489.12L2331.93 1489.12C2337.51 1489.12 2342.7 1486.49 2346.05 1482.24 2347.84 1483.6 2349.96 1485.19 2352.18 1486.86 2357.42 1490.8 2363.15 1495.11 2365.67 1497.22 2382.4 1511.22 2402.5 1526.33 2406.5 1528.97 2410.25 1531.42 2416.98 1534.04 2422.11 1534.04 2424.11 1534.04 2429.16 1534.04 2432.7 1531.04 2436.36 1532.47 2440.29 1532.4 2443.96 1530.79 2447.61 1529.18 2450.57 1526.15 2452.29 1522.46 2455.79 1523.18 2459.82 1522.65 2463.48 1520.82 2466.9 1519.1 2469.43 1516.5 2470.78 1513.47 2474.02 1513.77 2477.49 1512.71 2480.59 1510.34 2485.02 1506.95 2487.05 1501.95 2486.47 1497.02L2497.87 1490.71C2501.2 1495.24 2506.5 1498.11 2512.29 1498.11L2525.4 1498.11C2527.89 1498.11 2529.89 1496.1 2529.89 1493.61L2529.89 1403.79C2529.9 1402.33 2529.18 1400.95 2527.98 1400.11ZM2475.14 1503.2C2473.61 1504.37 2471.48 1505.02 2470.54 1504.07 2470.49 1504.02 2470.41 1504.03 2470.36 1503.98 2470.28 1503.9 2470.23 1503.79 2470.14 1503.72 2466.93 1501.19 2452.54 1486.47 2443.65 1477.19 2441.94 1475.4 2439.09 1475.33 2437.31 1477.06 2435.51 1478.77 2435.45 1481.61 2437.17 1483.4 2439.26 1485.58 2456.01 1503.03 2462.71 1509.13 2462.21 1511.1 2460.39 1512.32 2459.46 1512.79 2456.58 1514.23 2453.58 1513.99 2452.46 1512.94 2452.42 1512.91 2452.37 1512.91 2452.34 1512.88 2452.28 1512.84 2452.26 1512.77 2452.2 1512.72 2446.82 1508.42 2433.3 1494.06 2430.25 1490.73 2428.57 1488.9 2425.73 1488.79 2423.9 1490.47 2422.07 1492.15 2421.95 1494.99 2423.63 1496.81 2423.78 1496.97 2437.02 1511.26 2444.46 1517.89 2443.73 1519.99 2442.24 1521.73 2440.33 1522.58 2438.92 1523.2 2436.71 1523.52 2434.19 1521.66 2427.74 1516.19 2414.8 1502.41 2412.25 1499.69 2410.57 1497.87 2407.72 1497.78 2405.91 1499.47 2404.1 1501.17 2404 1504.01 2405.69 1505.82 2408.71 1509.05 2417.63 1518.51 2424.41 1524.91 2423.66 1525 2422.86 1525.05 2422.11 1525.05 2419.13 1525.05 2414.02 1523.15 2411.44 1521.46 2408.29 1519.39 2388.52 1504.63 2371.44 1490.33 2368.86 1488.17 2362.97 1483.73 2357.57 1479.68 2354.68 1477.51 2352.02 1475.51 2350.05 1474L2366.87 1429.15C2371.23 1428.96 2377.05 1428.46 2383.21 1427.91 2386.69 1427.61 2390.18 1427.31 2393.51 1427.05 2388.39 1432.3 2380.78 1441.72 2381.78 1450.55 2382.24 1454.57 2384.44 1457.91 2388.15 1460.23 2390.25 1461.54 2392.85 1462.21 2395.86 1462.21 2402.24 1462.21 2410.69 1459.03 2415.61 1452.92 2419.84 1452.31 2422.69 1451.23 2425.8 1449.69 2431.07 1454.64 2438.12 1460.45 2445.54 1466.56 2458.44 1477.19 2473.07 1489.25 2476.94 1496 2479.09 1499.76 2476.1 1502.47 2475.14 1503.2Z" fill="#000000" fill-rule="evenodd" fill-opacity="1"/></g></g></svg>