<svg width="211" height="211" xmlns="http://www.w3.org/2000/svg" xmlns:xlink="http://www.w3.org/1999/xlink" xml:space="preserve" overflow="hidden"><defs><clipPath id="clip0"><rect x="806" y="902" width="211" height="211"/></clipPath><clipPath id="clip1"><rect x="806" y="902" width="211" height="211"/></clipPath></defs><g clip-path="url(#clip0)" transform="translate(-806 -902)"><g clip-path="url(#clip1)"><path d="M1012.71 1076.67 845.333 1076.67 845.333 909.292C845.333 906.92 843.414 905 841.042 905L832.458 905C830.086 905 828.166 906.92 828.166 909.292L828.166 1076.67 815.291 1076.67C812.919 1076.67 811 1078.59 811 1080.96L811 1089.54C811 1091.91 812.919 1093.83 815.292 1093.83L828.167 1093.83 828.167 1106.71C828.167 1109.08 830.086 1111 832.458 1111L841.042 1111C843.414 1111 845.333 1109.08 845.333 1106.71L845.333 1093.83 1012.71 1093.83C1015.08 1093.83 1017 1091.91 1017 1089.54L1017 1080.96C1017 1078.59 1015.08 1076.67 1012.71 1076.67Z" fill="#000000" fill-rule="evenodd" fill-opacity="1"/><path d="M861.349 1048.74C863.03 1050.42 865.756 1050.42 867.438 1048.74L909.972 1006.35 929.717 1026.03C933.08 1029.38 938.531 1029.38 941.894 1026.03L991.778 976.305 991.778 977.042C991.778 979.414 993.703 981.334 996.084 981.334L1004.69 981.334C1007.07 981.334 1009 979.412 1009 977.042L1009 951.292C1009 948.922 1007.07 947 1004.69 947L978.861 947C976.483 947 974.555 948.922 974.555 951.292L974.555 959.875C974.555 962.247 976.481 964.167 978.861 964.167L979.601 964.167 935.805 1007.82 916.06 988.14C912.698 984.789 907.246 984.789 903.883 988.14L855.261 1036.61C853.58 1038.28 853.58 1041 855.261 1042.68L861.349 1048.74Z" fill="#000000" fill-rule="evenodd" fill-opacity="1"/></g></g></svg>