<svg width="60" height="62" xmlns="http://www.w3.org/2000/svg" xmlns:xlink="http://www.w3.org/1999/xlink" xml:space="preserve" overflow="hidden"><defs><clipPath id="clip0"><rect x="236" y="262" width="60" height="62"/></clipPath><clipPath id="clip1"><rect x="236" y="262" width="60" height="62"/></clipPath><clipPath id="clip2"><rect x="236" y="263" width="60" height="60"/></clipPath><clipPath id="clip3"><rect x="236" y="263" width="60" height="60"/></clipPath><clipPath id="clip4"><rect x="236" y="263" width="60" height="60"/></clipPath></defs><g clip-path="url(#clip0)" transform="translate(-236 -262)"><g clip-path="url(#clip1)"><g clip-path="url(#clip2)"><g clip-path="url(#clip3)"><g clip-path="url(#clip4)"><path d="M294.75 313 246 313 246 264.25C246 263.559 245.441 263 244.75 263L242.25 263C241.559 263 241 263.559 241 264.25L241 313 237.25 313C236.559 313 236 313.559 236 314.25L236 316.75C236 317.441 236.559 318 237.25 318L241 318 241 321.75C241 322.441 241.559 323 242.25 323L244.75 323C245.441 323 246 322.441 246 321.75L246 318 294.75 318C295.441 318 296 317.441 296 316.75L296 314.25C296 313.559 295.441 313 294.75 313Z" fill="#000000" fill-rule="nonzero" fill-opacity="1"/><path d="M250.634 305.134C251.122 305.622 251.913 305.622 252.401 305.134L264.75 292.785 270.482 298.518C271.459 299.494 273.041 299.494 274.018 298.518L288.5 284.035 288.5 284.25C288.5 284.941 289.059 285.5 289.75 285.5L292.25 285.5C292.94 285.5 293.5 284.94 293.5 284.25L293.5 276.75C293.5 276.06 292.94 275.5 292.25 275.5L284.75 275.5C284.06 275.5 283.5 276.06 283.5 276.75L283.5 279.25C283.5 279.941 284.059 280.5 284.75 280.5L284.965 280.5 272.25 293.215 266.517 287.482C265.541 286.506 263.959 286.506 262.982 287.482L248.866 301.599C248.378 302.087 248.378 302.878 248.866 303.366L250.634 305.134Z" fill="#000000" fill-rule="nonzero" fill-opacity="1"/></g></g></g></g></g></svg>