<svg width="211" height="175" xmlns="http://www.w3.org/2000/svg" xmlns:xlink="http://www.w3.org/1999/xlink" xml:space="preserve" overflow="hidden"><defs><clipPath id="clip0"><rect x="2305" y="870" width="211" height="175"/></clipPath><clipPath id="clip1"><rect x="2305" y="870" width="211" height="175"/></clipPath></defs><g clip-path="url(#clip0)" transform="translate(-2305 -870)"><g clip-path="url(#clip1)"><path d="M2512.75 910.969 2504.25 908.841C2504.09 908.412 2503.91 907.992 2503.74 907.572L2508.24 900.056C2509.25 898.363 2508.99 896.197 2507.59 894.802L2494.24 881.424C2492.85 880.017 2490.69 879.761 2489 880.777L2481.5 885.287C2481.08 885.107 2480.65 884.934 2480.23 884.771L2478.11 876.259C2477.63 874.344 2475.91 873 2473.94 873L2455.06 873C2453.09 873 2451.37 874.344 2450.9 876.259L2448.77 884.771C2448.35 884.934 2447.92 885.107 2447.51 885.287L2440 880.777C2438.31 879.769 2436.15 880.025 2434.76 881.424L2421.41 894.802C2420.02 896.197 2419.75 898.363 2420.76 900.056L2425.26 907.572C2425.09 907.992 2424.91 908.412 2424.75 908.841L2416.25 910.969C2414.34 911.448 2413 913.165 2413 915.139L2413 934.061C2413 936.035 2414.34 937.753 2416.25 938.231L2424.75 940.36C2424.91 940.789 2425.08 941.208 2425.26 941.628L2420.76 949.145C2420.55 949.493 2420.63 949.894 2420.52 950.271 2420.49 950.234 2420.5 950.177 2420.46 950.141L2404.68 934.326C2403.28 932.928 2401.11 932.663 2399.43 933.68L2392.04 938.131C2390.55 937.425 2389.03 936.795 2387.5 936.241L2385.4 927.855C2384.92 925.944 2383.21 924.601 2381.24 924.601L2358.93 924.601C2356.96 924.601 2355.24 925.944 2354.77 927.855L2352.67 936.241C2351.14 936.795 2349.62 937.425 2348.13 938.131L2340.73 933.68C2339.06 932.668 2336.88 932.928 2335.49 934.326L2319.71 950.141C2318.32 951.535 2318.05 953.701 2319.06 955.394L2323.51 962.805C2322.8 964.296 2322.17 965.816 2321.62 967.353L2313.25 969.452C2311.34 969.931 2310 971.648 2310 973.622L2310 995.979C2310 997.953 2311.34 999.67 2313.25 1000.15L2321.62 1002.25C2322.17 1003.79 2322.8 1005.31 2323.5 1006.8L2319.06 1014.21C2318.05 1015.9 2318.32 1018.07 2319.71 1019.46L2335.49 1035.27C2336.88 1036.66 2339.05 1036.93 2340.73 1035.92L2348.13 1031.47C2349.62 1032.18 2351.14 1032.81 2352.67 1033.36L2354.76 1041.75C2355.24 1043.66 2356.96 1045 2358.93 1045L2381.24 1045C2383.21 1045 2384.92 1043.66 2385.4 1041.75L2387.5 1033.36C2389.03 1032.81 2390.55 1032.18 2392.04 1031.47L2399.43 1035.92C2401.12 1036.93 2403.29 1036.66 2404.68 1035.27L2420.46 1019.46C2421.85 1018.07 2422.12 1015.9 2421.1 1014.21L2416.66 1006.8C2417.37 1005.31 2418 1003.78 2418.55 1002.25L2426.92 1000.15C2428.83 999.67 2430.17 997.953 2430.17 995.979L2430.17 973.622C2430.17 971.648 2428.83 969.931 2426.92 969.452L2418.55 967.353C2418 965.815 2417.37 964.296 2416.66 962.805L2421.1 955.394C2421.31 955.046 2421.24 954.644 2421.34 954.268 2421.38 954.305 2421.37 954.362 2421.41 954.398L2434.76 967.777C2436.15 969.176 2438.31 969.428 2440 968.424L2447.5 963.914C2447.92 964.094 2448.34 964.266 2448.77 964.43L2450.9 972.942C2451.37 974.857 2453.09 976.201 2455.06 976.201L2473.94 976.201C2475.91 976.201 2477.63 974.857 2478.1 972.942L2480.23 964.43C2480.66 964.266 2481.08 964.094 2481.5 963.914L2489 968.424C2490.69 969.432 2492.85 969.167 2494.24 967.777L2507.59 954.398C2508.98 953.004 2509.25 950.837 2508.24 949.145L2503.74 941.628C2503.92 941.208 2504.09 940.789 2504.25 940.36L2512.75 938.231C2514.66 937.753 2516 936.035 2516 934.061L2516 915.139C2516 913.165 2514.66 911.448 2512.75 910.969ZM2370.08 1010.6C2355.88 1010.6 2344.33 999.028 2344.33 984.801 2344.33 970.573 2355.88 959 2370.08 959 2384.28 959 2395.83 970.573 2395.83 984.801 2395.83 999.028 2384.28 1010.6 2370.08 1010.6ZM2464.5 941.8C2455.03 941.8 2447.33 934.086 2447.33 924.6 2447.33 915.114 2455.03 907.4 2464.5 907.4 2473.97 907.4 2481.67 915.114 2481.67 924.6 2481.67 934.087 2473.97 941.8 2464.5 941.8Z" fill="#000000" fill-rule="evenodd" fill-opacity="1"/></g></g></svg>