<svg width="211" height="211" xmlns="http://www.w3.org/2000/svg" xmlns:xlink="http://www.w3.org/1999/xlink" xml:space="preserve" overflow="hidden"><g transform="translate(-1439 -458)"><g><path d="M1587.06 565.657C1585.95 564.542 1584.28 564.118 1582.79 564.58 1581.83 564.864 1581.05 564.999 1580.33 564.999 1575.6 564.999 1571.75 561.147 1571.75 556.416 1571.75 555.678 1571.88 554.907 1572.17 553.981 1572.63 552.459 1572.22 550.808 1571.1 549.689L1564.94 543.541C1559.41 538.008 1549.76 538.008 1544.22 543.541L1543.85 543.909 1494.5 494.554 1494.5 488.435C1494.5 483.829 1492.02 479.545 1488.01 477.257L1462.3 462.563C1460.63 461.607 1458.51 461.888 1457.13 463.254L1444.26 476.13C1442.89 477.496 1442.61 479.613 1443.56 481.293L1458.26 507.006C1460.54 511.012 1464.83 513.498 1469.44 513.498L1475.56 513.498 1524.91 562.85 1524.54 563.217C1521.78 565.984 1520.25 569.663 1520.25 573.582 1520.25 577.497 1521.78 581.177 1524.54 583.943L1530.69 590.091C1531.82 591.21 1533.46 591.621 1534.96 591.168 1535.92 590.883 1536.7 590.749 1537.42 590.749 1542.15 590.749 1546 594.601 1546 599.332 1546 600.045 1545.87 600.824 1545.58 601.788 1545.12 603.301 1545.54 604.94 1546.65 606.055L1601.27 660.674C1606 665.398 1612.29 668 1618.96 668 1625.63 668 1631.92 665.397 1636.64 660.674L1641.67 655.645C1646.4 650.926 1649 644.643 1649 637.958 1649 631.273 1646.4 624.991 1641.67 620.272L1587.06 565.657Z" fill="#000000" fill-rule="evenodd" fill-opacity="1"/><path d="M1516.28 487.28C1535.91 487.28 1543.26 494.701 1551.78 503.294 1556.17 507.724 1554.98 517.162 1551.84 524.549 1551.28 525.861 1551.4 527.362 1552.16 528.569 1552.91 529.772 1554.21 530.522 1555.62 530.569 1561.56 530.78 1567.1 533.18 1571.2 537.335L1577.34 543.516C1578.05 544.233 1578.72 545.157 1579.38 546.342 1580.3 547.996 1582.17 548.831 1584.01 548.443 1588.65 547.44 1593.27 547.444 1597.1 548.414 1602.53 550.102 1606.19 555.046 1606.19 560.72 1606.19 561.597 1606.07 562.551 1605.83 563.631 1605.51 565.078 1605.94 566.584 1606.98 567.63L1616 576.735C1616.84 577.578 1617.94 578 1619.03 578 1620.13 578 1621.22 577.578 1622.06 576.735L1647.75 550.814C1649.42 549.127 1649.42 546.393 1647.75 544.706L1638.72 535.602C1637.69 534.551 1636.14 534.112 1634.75 534.441 1633.7 534.682 1632.76 534.799 1631.88 534.799 1624.79 534.799 1619.03 528.986 1619.03 521.84 1619.03 520.911 1619.16 519.924 1619.46 518.73 1619.82 517.279 1619.4 515.747 1618.36 514.676L1594.68 490.241C1581.74 477.189 1564.54 470 1546.25 470 1532.39 470 1523.23 474.624 1514.37 479.096 1512.59 479.99 1511.66 482.002 1512.12 483.951 1512.57 485.9 1514.3 487.28 1516.28 487.28Z" fill="#000000" fill-rule="evenodd" fill-opacity="1"/><path d="M1529.28 598.59C1527.62 597.934 1526.22 597.053 1525.13 595.967L1518.94 589.84C1514.52 585.462 1512.09 579.645 1512.09 573.463 1512.09 571.976 1512.25 570.514 1512.53 569.086 1512.86 567.349 1512.09 565.586 1510.57 564.65 1509.06 563.715 1507.13 563.794 1505.7 564.855 1497.45 570.973 1490.18 578.166 1484.07 586.222 1474.87 598.376 1463.74 608.801 1450.99 617.213 1445.99 620.525 1443 626.059 1443 632.019 1443 636.776 1444.87 641.245 1448.26 644.599L1457.54 653.791C1460.94 657.15 1465.45 659 1470.24 659 1476.26 659 1481.85 656.039 1485.19 651.077 1493.69 638.451 1504.21 627.43 1516.47 618.316 1521.57 614.536 1526.4 610.214 1530.85 605.473 1531.82 604.438 1532.21 602.997 1531.89 601.622 1531.58 600.248 1530.6 599.112 1529.28 598.59Z" fill="#000000" fill-rule="evenodd" fill-opacity="1"/></g></g></svg>