<svg width="1544" height="1288" xmlns="http://www.w3.org/2000/svg" xmlns:xlink="http://www.w3.org/1999/xlink" xml:space="preserve" overflow="hidden"><g transform="translate(-2310 -870)"><g><path d="M3827.73 1156 3764.3 1140.14C3763.08 1136.94 3761.76 1133.81 3760.45 1130.68L3794.06 1074.66C3801.63 1062.04 3799.63 1045.89 3789.24 1035.5L3689.55 935.786C3679.13 925.3 3663.01 923.392 3650.4 930.968L3594.39 964.58C3591.26 963.235 3588.1 961.952 3584.94 960.732L3569.08 897.288C3565.51 883.015 3552.71 873 3538.01 873L3397.01 873C3382.3 873 3369.5 883.015 3365.93 897.288L3350.07 960.732C3346.91 961.952 3343.75 963.235 3340.62 964.58L3284.61 930.968C3272 923.454 3255.85 925.362 3245.47 935.786L3145.78 1035.5C3135.39 1045.89 3133.38 1062.04 3140.96 1074.66L3174.56 1130.68C3173.25 1133.81 3171.93 1136.94 3170.72 1140.14L3107.29 1156C3093.02 1159.57 3083.01 1172.37 3083.01 1187.08L3083.01 1328.12C3083.01 1342.83 3093.02 1355.63 3107.29 1359.2L3170.72 1375.07C3171.93 1378.26 3173.22 1381.39 3174.56 1384.52L3140.96 1440.55C3139.4 1443.14 3139.93 1446.13 3139.18 1448.94 3138.92 1448.66 3138.97 1448.24 3138.7 1447.97L3020.86 1330.09C3010.44 1319.67 2994.27 1317.7 2981.72 1325.28L2926.49 1358.45C2915.38 1353.19 2904.05 1348.5 2892.6 1344.37L2876.96 1281.86C2873.39 1267.62 2860.59 1257.61 2845.89 1257.61L2679.29 1257.61C2664.59 1257.61 2651.79 1267.62 2648.22 1281.86L2632.58 1344.37C2621.12 1348.5 2609.8 1353.19 2598.69 1358.45L2543.46 1325.28C2530.95 1317.73 2514.71 1319.67 2504.32 1330.09L2386.48 1447.97C2376.09 1458.36 2374.09 1474.5 2381.66 1487.12L2414.83 1542.36C2409.57 1553.47 2404.88 1564.8 2400.75 1576.26L2338.26 1591.91C2324.01 1595.48 2314 1608.28 2314 1622.99L2314 1789.62C2314 1804.33 2324.01 1817.13 2338.25 1820.7L2400.74 1836.35C2404.87 1847.81 2409.56 1859.13 2414.82 1870.25L2381.65 1925.49C2374.08 1938.1 2376.08 1954.25 2386.47 1964.64L2504.31 2082.51C2514.7 2092.87 2530.91 2094.81 2543.45 2087.33L2598.68 2054.15C2609.79 2059.41 2621.12 2064.11 2632.57 2068.24L2648.21 2130.74C2651.78 2144.99 2664.58 2155 2679.29 2155L2845.88 2155C2860.59 2155 2873.38 2144.99 2876.95 2130.74L2892.59 2068.24C2904.05 2064.11 2915.37 2059.41 2926.48 2054.15L2981.71 2087.33C2994.29 2094.84 3010.5 2092.87 3020.85 2082.51L3138.69 1964.64C3149.08 1954.25 3151.09 1938.1 3143.51 1925.49L3110.34 1870.25C3115.6 1859.13 3120.3 1847.8 3124.43 1836.35L3186.91 1820.7C3201.15 1817.13 3211.16 1804.33 3211.16 1789.62L3211.16 1622.99C3211.16 1608.28 3201.15 1595.48 3186.91 1591.91L3124.43 1576.26C3120.3 1564.8 3115.6 1553.47 3110.34 1542.36L3143.51 1487.12C3145.07 1484.53 3144.53 1481.54 3145.29 1478.73 3145.55 1479 3145.5 1479.43 3145.76 1479.7L3245.46 1579.42C3255.85 1589.84 3271.96 1591.72 3284.6 1584.24L3340.61 1550.62C3343.74 1551.97 3346.87 1553.25 3350.07 1554.47L3365.93 1617.92C3369.5 1632.19 3382.29 1642.21 3397 1642.21L3538 1642.21C3552.71 1642.21 3565.5 1632.19 3569.07 1617.92L3584.94 1554.47C3588.13 1553.25 3591.26 1551.97 3594.39 1550.62L3650.4 1584.24C3663.04 1591.75 3679.18 1589.78 3689.54 1579.42L3789.24 1479.7C3799.62 1469.31 3801.63 1453.16 3794.05 1440.55L3760.45 1384.52C3761.79 1381.39 3763.07 1378.26 3764.29 1375.07L3827.72 1359.2C3841.99 1355.63 3852 1342.83 3852 1328.12L3852 1187.08C3852.01 1172.37 3842 1159.57 3827.73 1156ZM2762.58 1898.61C2656.57 1898.61 2570.33 1812.35 2570.33 1706.3 2570.33 1600.26 2656.57 1514 2762.58 1514 2868.6 1514 2954.84 1600.26 2954.84 1706.3 2954.84 1812.35 2868.6 1898.61 2762.58 1898.61ZM3467.51 1385.8C3396.82 1385.8 3339.34 1328.31 3339.34 1257.6 3339.34 1186.89 3396.82 1129.4 3467.51 1129.4 3538.19 1129.4 3595.67 1186.9 3595.67 1257.6 3595.67 1328.31 3538.19 1385.8 3467.51 1385.8Z" fill="#000000" fill-rule="evenodd" fill-opacity="1"/></g></g></svg>