<svg width="60" height="61" xmlns="http://www.w3.org/2000/svg" xmlns:xlink="http://www.w3.org/1999/xlink" xml:space="preserve" overflow="hidden"><defs><clipPath id="clip0"><rect x="230" y="396" width="60" height="61"/></clipPath><clipPath id="clip1"><rect x="230" y="396" width="60" height="61"/></clipPath><clipPath id="clip2"><rect x="231" y="397" width="59" height="60"/></clipPath><clipPath id="clip3"><rect x="231" y="397" width="59" height="60"/></clipPath><clipPath id="clip4"><rect x="231" y="397" width="59" height="60"/></clipPath></defs><g clip-path="url(#clip0)" transform="translate(-230 -396)"><g clip-path="url(#clip1)"><g clip-path="url(#clip2)"><g clip-path="url(#clip3)"><g clip-path="url(#clip4)"><path d="M57.7708 51.625 56.5416 51.625 56.5416 3.6875C56.5416 3.00808 55.9918 2.45829 55.3124 2.45829L43.0208 2.45829C42.3414 2.45829 41.7916 3.00808 41.7916 3.6875L41.7916 51.625 36.875 51.625 36.875 15.9792C36.875 15.2998 36.3252 14.75 35.6458 14.75L23.3542 14.75C22.6748 14.75 22.125 15.2998 22.125 15.9792L22.125 51.625 17.2083 51.625 17.2083 28.2708C17.2083 27.5914 16.6585 27.0416 15.9791 27.0416L3.6875 27.0416C3.00808 27.0416 2.45829 27.5914 2.45829 28.2708L2.45829 51.625 1.22921 51.625C0.549783 51.625 0 52.1748 0 52.8542L0 55.3125C0 55.9919 0.549783 56.5417 1.22921 56.5417L57.7709 56.5417C58.4503 56.5417 59.0001 55.9919 59.0001 55.3125L59.0001 52.8542C59 52.1748 58.4502 51.625 57.7708 51.625Z" fill="#000000" fill-rule="nonzero" fill-opacity="1" transform="matrix(1 0 0 1.01695 231 397)"/></g></g></g></g></g></svg>